<?xml version="1.0" encoding="UTF-8" standalone="no"?>
<!DOCTYPE svg PUBLIC "-//W3C//DTD SVG 1.1//EN"
 "http://www.w3.org/Graphics/SVG/1.1/DTD/svg11.dtd">
<!-- Generated by graphviz version 15.1.0 (20260618.0150)
 -->
<!-- Title: simple_in_n_out Pages: 1 -->
<svg width="478pt" height="205pt"
 viewBox="0.00 0.00 478.00 205.00" xmlns="http://www.w3.org/2000/svg" xmlns:xlink="http://www.w3.org/1999/xlink">
<g id="graph0" class="graph" transform="scale(1 1) rotate(0) translate(4 200.5)">
<title>simple_in_n_out</title>
<polygon fill="white" stroke="none" points="-4,4 -4,-200.5 474.15,-200.5 474.15,4 -4,4"/>
<text xml:space="preserve" text-anchor="middle" x="235.08" y="-7.2" font-family="Times New Roman,serif" font-size="14.00">simple_in_n_out</text>
<!-- n3 -->
<g id="node1" class="node">
<title>n3</title>
<polygon fill="none" stroke="black" points="470.15,-72.04 470.15,-86.96 449.93,-97.5 421.32,-97.5 401.09,-86.96 401.09,-72.04 421.32,-61.5 449.93,-61.5 470.15,-72.04"/>
<text xml:space="preserve" text-anchor="middle" x="435.62" y="-74.45" font-family="Times New Roman,serif" font-size="14.00">out_2</text>
</g>
<!-- n4 -->
<g id="node2" class="node">
<title>n4</title>
<polygon fill="none" stroke="black" points="470.15,-158.04 470.15,-172.96 449.93,-183.5 421.32,-183.5 401.09,-172.96 401.09,-158.04 421.32,-147.5 449.93,-147.5 470.15,-158.04"/>
<text xml:space="preserve" text-anchor="middle" x="435.62" y="-160.45" font-family="Times New Roman,serif" font-size="14.00">out_1</text>
</g>
<!-- n5 -->
<g id="node3" class="node">
<title>n5</title>
<polygon fill="none" stroke="black" points="59.09,-153.04 59.09,-167.96 41.78,-178.5 17.31,-178.5 0,-167.96 0,-153.04 17.31,-142.5 41.78,-142.5 59.09,-153.04"/>
<text xml:space="preserve" text-anchor="middle" x="29.55" y="-155.45" font-family="Times New Roman,serif" font-size="14.00">in_3</text>
</g>
<!-- c11 -->
<g id="node6" class="node">
<title>c11</title>
<polygon fill="none" stroke="black" points="100.34,-25 100.34,-74 206.84,-74 206.84,-25 100.34,-25"/>
<text xml:space="preserve" text-anchor="middle" x="113.22" y="-56.7" font-family="Times New Roman,serif" font-size="14.00">A</text>
<polyline fill="none" stroke="black" points="100.34,-49.5 126.09,-49.5"/>
<text xml:space="preserve" text-anchor="middle" x="113.22" y="-32.2" font-family="Times New Roman,serif" font-size="14.00">B</text>
<polyline fill="none" stroke="black" points="126.09,-25 126.09,-74"/>
<text xml:space="preserve" text-anchor="middle" x="153.59" y="-52.7" font-family="Times New Roman,serif" font-size="14.00">$81</text>
<text xml:space="preserve" text-anchor="middle" x="153.59" y="-36.2" font-family="Times New Roman,serif" font-size="14.00">$_OR_</text>
<polyline fill="none" stroke="black" points="181.09,-25 181.09,-74"/>
<text xml:space="preserve" text-anchor="middle" x="193.97" y="-44.7" font-family="Times New Roman,serif" font-size="14.00">Y</text>
</g>
<!-- n5&#45;&gt;c11 -->
<g id="edge5" class="edge">
<title>n5:e&#45;&gt;c11:w</title>
<path fill="none" stroke="black" d="M59.09,-160.5C101.86,-160.5 61.63,-80.1 88.18,-64.39"/>
<polygon fill="black" stroke="black" points="88.94,-67.81 97.87,-62.1 87.33,-61 88.94,-67.81"/>
</g>
<!-- c13 -->
<g id="node8" class="node">
<title>c13</title>
<polygon fill="none" stroke="black" points="95.09,-147 95.09,-196 212.09,-196 212.09,-147 95.09,-147"/>
<text xml:space="preserve" text-anchor="middle" x="107.97" y="-178.7" font-family="Times New Roman,serif" font-size="14.00">A</text>
<polyline fill="none" stroke="black" points="95.09,-171.5 120.84,-171.5"/>
<text xml:space="preserve" text-anchor="middle" x="107.97" y="-154.2" font-family="Times New Roman,serif" font-size="14.00">B</text>
<polyline fill="none" stroke="black" points="120.84,-147 120.84,-196"/>
<text xml:space="preserve" text-anchor="middle" x="153.59" y="-174.7" font-family="Times New Roman,serif" font-size="14.00">$83</text>
<text xml:space="preserve" text-anchor="middle" x="153.59" y="-158.2" font-family="Times New Roman,serif" font-size="14.00">$_AND_</text>
<polyline fill="none" stroke="black" points="186.34,-147 186.34,-196"/>
<text xml:space="preserve" text-anchor="middle" x="199.22" y="-166.7" font-family="Times New Roman,serif" font-size="14.00">Y</text>
</g>
<!-- n5&#45;&gt;c13 -->
<g id="edge6" class="edge">
<title>n5:e&#45;&gt;c13:w</title>
<path fill="none" stroke="black" d="M59.09,-160.5C73.52,-160.5 75.82,-173.85 84.37,-180.32"/>
<polygon fill="black" stroke="black" points="83.06,-183.57 93.65,-183.29 85.19,-176.91 83.06,-183.57"/>
</g>
<!-- n6 -->
<g id="node4" class="node">
<title>n6</title>
<polygon fill="none" stroke="black" points="183.14,-103.04 183.14,-117.96 165.83,-128.5 141.35,-128.5 124.05,-117.96 124.05,-103.04 141.35,-92.5 165.83,-92.5 183.14,-103.04"/>
<text xml:space="preserve" text-anchor="middle" x="153.59" y="-105.45" font-family="Times New Roman,serif" font-size="14.00">in_2</text>
</g>
<!-- c12 -->
<g id="node7" class="node">
<title>c12</title>
<polygon fill="none" stroke="black" points="253.34,-55 253.34,-104 359.84,-104 359.84,-55 253.34,-55"/>
<text xml:space="preserve" text-anchor="middle" x="266.22" y="-86.7" font-family="Times New Roman,serif" font-size="14.00">A</text>
<polyline fill="none" stroke="black" points="253.34,-79.5 279.09,-79.5"/>
<text xml:space="preserve" text-anchor="middle" x="266.22" y="-62.2" font-family="Times New Roman,serif" font-size="14.00">B</text>
<polyline fill="none" stroke="black" points="279.09,-55 279.09,-104"/>
<text xml:space="preserve" text-anchor="middle" x="306.59" y="-82.7" font-family="Times New Roman,serif" font-size="14.00">$82</text>
<text xml:space="preserve" text-anchor="middle" x="306.59" y="-66.2" font-family="Times New Roman,serif" font-size="14.00">$_OR_</text>
<polyline fill="none" stroke="black" points="334.09,-55 334.09,-104"/>
<text xml:space="preserve" text-anchor="middle" x="346.97" y="-74.7" font-family="Times New Roman,serif" font-size="14.00">Y</text>
</g>
<!-- n6&#45;&gt;c12 -->
<g id="edge7" class="edge">
<title>n6:e&#45;&gt;c12:w</title>
<path fill="none" stroke="black" d="M184.41,-110.5C211.57,-110.5 219.16,-96.4 241.12,-92.65"/>
<polygon fill="black" stroke="black" points="241.15,-96.16 250.83,-91.87 240.58,-89.19 241.15,-96.16"/>
</g>
<!-- c14 -->
<g id="node9" class="node">
<title>c14</title>
<polygon fill="none" stroke="black" points="248.09,-141 248.09,-190 365.09,-190 365.09,-141 248.09,-141"/>
<text xml:space="preserve" text-anchor="middle" x="260.97" y="-172.7" font-family="Times New Roman,serif" font-size="14.00">A</text>
<polyline fill="none" stroke="black" points="248.09,-165.5 273.84,-165.5"/>
<text xml:space="preserve" text-anchor="middle" x="260.97" y="-148.2" font-family="Times New Roman,serif" font-size="14.00">B</text>
<polyline fill="none" stroke="black" points="273.84,-141 273.84,-190"/>
<text xml:space="preserve" text-anchor="middle" x="306.59" y="-168.7" font-family="Times New Roman,serif" font-size="14.00">$84</text>
<text xml:space="preserve" text-anchor="middle" x="306.59" y="-152.2" font-family="Times New Roman,serif" font-size="14.00">$_AND_</text>
<polyline fill="none" stroke="black" points="339.34,-141 339.34,-190"/>
<text xml:space="preserve" text-anchor="middle" x="352.22" y="-160.7" font-family="Times New Roman,serif" font-size="14.00">Y</text>
</g>
<!-- n6&#45;&gt;c14 -->
<g id="edge8" class="edge">
<title>n6:e&#45;&gt;c14:w</title>
<path fill="none" stroke="black" d="M184.41,-110.5C221.23,-110.5 210.2,-164.31 236.92,-175.66"/>
<polygon fill="black" stroke="black" points="236.13,-179.08 246.6,-177.47 237.42,-172.2 236.13,-179.08"/>
</g>
<!-- n7 -->
<g id="node5" class="node">
<title>n7</title>
<polygon fill="none" stroke="black" points="59.09,-53.04 59.09,-67.96 41.78,-78.5 17.31,-78.5 0,-67.96 0,-53.04 17.31,-42.5 41.78,-42.5 59.09,-53.04"/>
<text xml:space="preserve" text-anchor="middle" x="29.55" y="-55.45" font-family="Times New Roman,serif" font-size="14.00">in_1</text>
</g>
<!-- n7&#45;&gt;c11 -->
<g id="edge9" class="edge">
<title>n7:e&#45;&gt;c11:w</title>
<path fill="none" stroke="black" d="M59.09,-60.5C75.23,-60.5 78.11,-46.31 88.45,-40.1"/>
<polygon fill="black" stroke="black" points="89.09,-43.55 97.88,-37.63 87.32,-36.78 89.09,-43.55"/>
</g>
<!-- n7&#45;&gt;c13 -->
<g id="edge10" class="edge">
<title>n7:e&#45;&gt;c13:w</title>
<path fill="none" stroke="black" d="M59.09,-60.5C101.24,-60.5 58.6,-140.9 84.19,-156.61"/>
<polygon fill="black" stroke="black" points="83.08,-159.94 93.62,-158.89 84.73,-153.14 83.08,-159.94"/>
</g>
<!-- c11&#45;&gt;c12 -->
<g id="edge1" class="edge">
<title>c11:e&#45;&gt;c12:w</title>
<path fill="none" stroke="black" d="M207.84,-49.75C224.61,-49.75 229.39,-60.65 241.1,-65.24"/>
<polygon fill="black" stroke="black" points="240.39,-68.67 250.85,-66.98 241.62,-61.78 240.39,-68.67"/>
</g>
<!-- c12&#45;&gt;n3 -->
<g id="edge3" class="edge">
<title>c12:e&#45;&gt;n3:w</title>
<path fill="none" stroke="black" d="M360.84,-79.75C374.26,-79.75 380.13,-79.61 389.77,-79.54"/>
<polygon fill="black" stroke="black" points="389.59,-83.04 399.58,-79.51 389.57,-76.04 389.59,-83.04"/>
</g>
<!-- c13&#45;&gt;c14 -->
<g id="edge2" class="edge">
<title>c13:e&#45;&gt;c14:w</title>
<path fill="none" stroke="black" d="M212.09,-171.75C225.44,-171.75 228.9,-161.56 237.14,-156.3"/>
<polygon fill="black" stroke="black" points="237.94,-159.72 246.63,-153.66 236.06,-152.97 237.94,-159.72"/>
</g>
<!-- c14&#45;&gt;n4 -->
<g id="edge4" class="edge">
<title>c14:e&#45;&gt;n4:w</title>
<path fill="none" stroke="black" d="M365.09,-165.75C376.47,-165.75 381.78,-165.62 389.64,-165.55"/>
<polygon fill="black" stroke="black" points="389.59,-169.05 399.58,-165.51 389.56,-162.05 389.59,-169.05"/>
</g>
</g>
</svg>
